<svg width="31" height="47" viewBox="0 0 31 47" fill="none" xmlns="http://www.w3.org/2000/svg">
<path d="M14.8841 46.9436C12.5985 46.9436 10.4492 46.4718 8.43617 45.5282C6.44412 44.5846 4.72466 43.274 3.2778 41.5965C1.83094 39.919 0.792973 37.9689 0.163903 35.7462L8.40472 33.5444C8.67731 34.6138 9.1596 35.5365 9.85158 36.3123C10.5645 37.0882 11.3823 37.6963 12.3049 38.1366C13.2486 38.556 14.2131 38.7657 15.1987 38.7657C16.4987 38.7657 17.6835 38.4512 18.7529 37.8221C19.8433 37.193 20.703 36.3438 21.3321 35.2744C21.9821 34.2049 22.3072 33.0202 22.3072 31.7201C22.3072 30.42 21.9821 29.2353 21.3321 28.1659C20.703 27.0965 19.8433 26.2472 18.7529 25.6181C17.6835 24.9891 16.4987 24.6745 15.1987 24.6745C13.605 24.6745 12.3049 24.9471 11.2984 25.4923C10.2919 26.0166 9.53704 26.5198 9.03379 27.0021L1.79948 24.8004L3.18344 0.706982H27.9059V8.69617H7.90146L10.921 5.86535L9.97739 21.4034L8.53053 19.642C9.66286 18.7193 10.9524 18.0483 12.3993 17.629C13.8462 17.2096 15.1987 16.9999 16.4568 16.9999C19.3086 16.9999 21.8144 17.6394 23.9742 18.9185C26.155 20.1767 27.8535 21.9171 29.0697 24.1398C30.3068 26.3416 30.9254 28.8683 30.9254 31.7201C30.9254 34.5719 30.181 37.1511 28.6922 39.4577C27.2034 41.7433 25.2428 43.5676 22.8104 44.9306C20.378 46.2726 17.7359 46.9436 14.8841 46.9436Z" fill="url(#paint0_linear_1_380)"/>
<defs>
<linearGradient id="paint0_linear_1_380" x1="16.0186" y1="14.9786" x2="34.8511" y2="58.0589" gradientUnits="userSpaceOnUse">
<stop stop-color="#E21F4D"/>
<stop offset="1" stop-color="#981433"/>
</linearGradient>
</defs>
</svg>
