<svg width="11" height="18" viewBox="0 0 11 18" fill="none" xmlns="http://www.w3.org/2000/svg">
<path fill-rule="evenodd" clip-rule="evenodd" d="M10.004 0.646667C9.94137 0.583851 9.86699 0.534009 9.78508 0.500001C9.70318 0.465992 9.61537 0.448486 9.52669 0.448486C9.43801 0.448486 9.3502 0.465992 9.26829 0.500001C9.18639 0.534009 9.11201 0.583851 9.04941 0.646667L0.963754 8.73233C0.900937 8.79492 0.851095 8.86931 0.817086 8.95121C0.783078 9.03311 0.765573 9.12092 0.765573 9.2096C0.765573 9.29828 0.783078 9.3861 0.817086 9.468C0.851095 9.5499 0.900937 9.62428 0.963754 9.68688L9.04941 17.7725C9.11209 17.8352 9.1865 17.8849 9.26839 17.9189C9.35028 17.9528 9.43805 17.9702 9.52669 17.9702C9.61533 17.9702 9.7031 17.9528 9.78499 17.9189C9.86688 17.8849 9.94129 17.8352 10.004 17.7725C10.0666 17.7099 10.1164 17.6355 10.1503 17.5536C10.1842 17.4717 10.2017 17.3839 10.2017 17.2953C10.2017 17.2066 10.1842 17.1189 10.1503 17.037C10.1164 16.9551 10.0666 16.8807 10.004 16.818L2.39446 9.2096L10.004 1.60122C10.0668 1.53863 10.1166 1.46424 10.1506 1.38234C10.1846 1.30044 10.2021 1.21263 10.2021 1.12395C10.2021 1.03526 10.1846 0.947453 10.1506 0.865551C10.1166 0.783649 10.0668 0.709266 10.004 0.646667Z" fill="#E21F4D"/>
</svg>
