<svg width="14" height="14" viewBox="0 0 14 14" fill="none" xmlns="http://www.w3.org/2000/svg">
<path d="M1.75 12.2496L2.7125 10.0329C1.97614 8.98759 1.64656 7.70949 1.78561 6.43845C1.92466 5.16741 2.52279 3.9908 3.46775 3.12944C4.4127 2.26808 5.63952 1.78118 6.91797 1.76011C8.19642 1.73905 9.43862 2.18526 10.4114 3.01502C11.3843 3.84478 12.0208 5.00104 12.2017 6.26681C12.3825 7.53258 12.0953 8.82085 11.3937 9.88984C10.6922 10.9588 9.62467 11.7351 8.39148 12.0729C7.15828 12.4107 5.8442 12.2868 4.69583 11.7246L1.75 12.2496" stroke="#E21F4D" stroke-width="1.16833" stroke-linecap="round" stroke-linejoin="round"/>
<path d="M5.25 5.8335C5.25 6.60704 5.55729 7.34891 6.10427 7.89589C6.65125 8.44287 7.39312 8.75016 8.16667 8.75016H8.75C8.82736 8.75016 8.90154 8.71943 8.95624 8.66474C9.01094 8.61004 9.04167 8.53585 9.04167 8.4585C9.04167 8.38114 9.01094 8.30695 8.95624 8.25226C8.90154 8.19756 8.82736 8.16683 8.75 8.16683H8.16667C8.08931 8.16683 8.01513 8.19756 7.96043 8.25226C7.90573 8.30695 7.875 8.38114 7.875 8.4585C7.875 8.53585 7.90573 8.61004 7.96043 8.66474C8.01513 8.71943 8.08931 8.75016 8.16667 8.75016M5.25 5.8335C5.25 5.91085 5.28073 5.98504 5.33543 6.03974C5.39013 6.09443 5.46431 6.12516 5.54167 6.12516C5.61902 6.12516 5.69321 6.09443 5.74791 6.03974C5.8026 5.98504 5.83333 5.91085 5.83333 5.8335V5.25016C5.83333 5.17281 5.8026 5.09862 5.74791 5.04392C5.69321 4.98922 5.61902 4.9585 5.54167 4.9585C5.46431 4.9585 5.39013 4.98922 5.33543 5.04392C5.28073 5.09862 5.25 5.17281 5.25 5.25016V5.8335Z" stroke="#E21F4D" stroke-width="1.16833" stroke-linecap="round" stroke-linejoin="round"/>
</svg>
