<svg width="12" height="12" viewBox="0 0 12 12" fill="none" xmlns="http://www.w3.org/2000/svg">
<path d="M11.2499 0.750122L7.45825 11.2501C7.43266 11.306 7.39157 11.3533 7.33987 11.3865C7.28816 11.4197 7.22802 11.4373 7.16659 11.4373C7.10515 11.4373 7.04501 11.4197 6.99331 11.3865C6.9416 11.3533 6.90051 11.306 6.87492 11.2501L4.83325 7.16679L0.749919 5.12512C0.69407 5.09953 0.646743 5.05844 0.613563 5.00674C0.580382 4.95503 0.562744 4.89489 0.562744 4.83346C0.562744 4.77202 0.580382 4.71188 0.613563 4.66018C0.646743 4.60847 0.69407 4.56738 0.749919 4.54179L11.2499 0.750122Z" stroke="#E21F4D" stroke-width="1.05654" stroke-linecap="round" stroke-linejoin="round"/>
</svg>
