<svg width="14" height="14" viewBox="0 0 14 14" fill="none" xmlns="http://www.w3.org/2000/svg">
<path d="M7 12.2499C7.68944 12.2499 8.37213 12.1141 9.00909 11.8502C9.64605 11.5864 10.2248 11.1997 10.7123 10.7122C11.1998 10.2247 11.5865 9.64593 11.8504 9.00897C12.1142 8.37201 12.25 7.68932 12.25 6.99988C12.25 6.31044 12.1142 5.62775 11.8504 4.99079C11.5865 4.35383 11.1998 3.77507 10.7123 3.28757C10.2248 2.80006 9.64605 2.41335 9.00909 2.14951C8.37213 1.88567 7.68944 1.74988 7 1.74988C5.60761 1.74988 4.27226 2.303 3.28769 3.28757C2.30312 4.27213 1.75 5.60749 1.75 6.99988C1.75 8.39226 2.30312 9.72762 3.28769 10.7122C4.27226 11.6968 5.60761 12.2499 7 12.2499V12.2499Z" stroke="#E21F4D" stroke-width="1.16833" stroke-linecap="round" stroke-linejoin="round"/>
<path d="M7 4.08325V6.99992L8.75 8.74992" stroke="#E21F4D" stroke-width="1.16833" stroke-linecap="round" stroke-linejoin="round"/>
</svg>
