<svg width="89" height="20" viewBox="0 0 89 20" fill="none" xmlns="http://www.w3.org/2000/svg">
<path d="M5.66665 4.13037L0.979947 4.10907V18.9787L5.66665 19C9.54383 19 12.6754 15.698 12.6754 11.5865C12.6754 7.45367 9.54383 4.13037 5.66665 4.13037ZM5.56013 16.2093H3.72806V7.0063L5.56013 6.985C7.94609 6.985 9.88468 9.05141 9.88468 11.5865C9.88468 14.1216 7.94609 16.2093 5.56013 16.2093ZM22.7152 15.2719C22.7791 14.9737 22.8004 14.6541 22.8004 14.3346C22.8004 11.6717 20.7127 9.49878 18.135 9.49878C15.5786 9.49878 13.4909 11.6717 13.4909 14.3346C13.4909 17.0188 15.5786 19.1917 18.135 19.1917C19.4132 19.1917 20.5849 18.6591 21.4157 17.7857C21.6926 17.5088 21.9483 17.1892 22.14 16.8484V16.8271L19.6262 15.8897H19.6049C19.2215 16.2732 18.7102 16.5288 18.135 16.5288C17.3042 16.5288 16.5799 15.9962 16.239 15.2719H16.2603C16.2603 15.2719 22.5235 15.2719 22.7152 15.2719ZM16.239 13.3973C16.5586 12.6516 17.2829 12.0978 18.135 12.0978C18.9658 12.0978 19.6688 12.6516 20.0097 13.376L16.239 13.3973ZM26.4765 14.3772C26.4765 13.2268 27.35 12.2469 28.4364 12.2469C29.5016 12.2469 30.375 13.2268 30.375 14.3772V19H32.8462V14.3772C32.8462 11.7995 30.865 9.71181 28.4364 9.71181C27.7334 9.71181 26.9878 9.94614 26.4765 10.4148C26.4765 10.2444 26.4765 9.6692 26.4765 9.6692H24.048V19H26.4765V14.3772ZM39.585 16.5714H37.476C37.1138 16.5714 36.8369 16.2945 36.8369 15.9536V12.1191H39.585V9.73311H36.8369L36.8156 7.09152H34.3444C34.3444 7.11282 34.3444 15.9962 34.3444 16.3797C34.3444 17.8283 35.5587 19.0213 37.0712 19.0213L39.585 19V16.5714ZM41.0032 19.0213H43.4956V9.6905H41.0032V19.0213ZM42.2387 8.64665C42.9844 8.64665 43.6021 8.02886 43.6021 7.24064C43.6021 6.47372 42.9844 5.83463 42.2387 5.83463C41.4931 5.83463 40.8966 6.47372 40.8966 7.24064C40.8966 8.02886 41.4931 8.64665 42.2387 8.64665ZM50.5729 13.6742C50.4451 13.6316 48.2083 12.886 48.1444 12.8221C47.3136 12.3108 47.9953 11.6078 48.9539 11.6078C49.4226 11.6078 50.083 11.8421 50.1043 12.3108H52.9589C52.9589 11.5226 52.5115 10.777 51.7233 10.2444C50.2534 9.17923 47.6331 9.17923 46.1632 10.2444C44.7998 11.1391 44.5015 12.7582 45.6306 13.9298C46.0567 14.3772 46.6319 14.7181 47.3136 14.9311C47.3349 14.9311 49.4226 15.6554 49.4439 15.6554C50.5942 16.0176 50.1256 16.9762 48.9539 16.9975C48.2509 16.9975 47.7822 16.6353 47.7822 16.2945H44.9489C44.9489 17.0827 45.375 17.8283 46.1632 18.3609C47.6331 19.4261 50.2534 19.4261 51.7233 18.3609C53.0867 17.4662 53.385 15.8471 52.2559 14.6755C51.8511 14.2494 51.2546 13.9085 50.5729 13.6742ZM59.5151 16.5714H57.4061C57.044 16.5714 56.767 16.2945 56.767 15.9536V12.1191H59.5151V9.73311H56.767L56.7457 7.09152H54.2745C54.2745 7.11282 54.2745 15.9962 54.2745 16.3797C54.2745 17.8283 55.4888 19.0213 57.0013 19.0213L59.5151 19V16.5714Z" fill="#3F3F3F"/>
<path d="M68.0699 4.10907H64.0862L60.1025 19H62.9358L63.937 15.2932H68.2616L69.2841 19H72.1175L68.0699 4.10907ZM64.64 12.6943L66.11 7.09152L67.5586 12.6943H64.64ZM77.3885 9.6692C76.6855 9.6692 75.9825 9.90354 75.4073 10.3935C75.4073 10.2231 75.4073 9.6479 75.4073 9.6479H72.9787V19H75.4073V14.3559C75.4073 13.2268 76.2807 12.2469 77.3672 12.2469C78.3045 12.2469 79.0715 12.9712 79.2632 13.8872C79.3058 14.0364 79.3271 14.2068 79.3271 14.3559V19C79.3271 19 80.9248 19 81.777 19C81.777 16.9336 81.777 14.292 81.777 14.292C81.777 14.1003 81.7983 13.9085 81.8409 13.7381C82.0965 12.886 82.8421 12.2043 83.7156 12.2043C84.802 12.2043 85.6754 13.1842 85.6754 14.3346V19H88.1466V14.3559C88.1466 12.1404 86.7193 10.3083 84.802 9.81832C84.4612 9.73311 84.1203 9.6905 83.7582 9.6905C82.5013 9.6905 81.3509 10.2444 80.5627 11.1178C80.2005 10.7344 79.7958 10.4148 79.3484 10.1805C78.7519 9.86093 78.0915 9.6692 77.3885 9.6692Z" fill="#E21F4D"/>
<path d="M60.5 0L61.1752 1.82477L63 2.5L61.1752 3.17523L60.5 5L59.8248 3.17523L58 2.5L59.8248 1.82477L60.5 0Z" fill="#E21F4D"/>
</svg>
